<?xml version="1.0" encoding="UTF-8"?>
<svg id="Ebene_2" xmlns="http://www.w3.org/2000/svg" viewBox="0 0 402.58 123.17">
  <defs>
    <style>
      .cls-1 {
        fill: none;
      }

      .cls-1, .cls-2, .cls-3 {
        stroke: #000;
        stroke-miterlimit: 10;
        stroke-width: .5px;
      }

      .cls-4, .cls-5, .cls-6 {
        font-family: BBTMartiresFree-ExtraBold, 'BBT Martires Free';
        font-size: 79.48px;
        font-weight: 700;
        letter-spacing: .09em;
      }

      .cls-4, .cls-6 {
        fill: #7d5616;
      }

      .cls-2 {
        fill: #844f13;
      }

      .cls-3 {
        fill: #78a94e;
      }

      .cls-5 {
        fill: #7d5614;
      }

      .cls-6 {
        isolation: isolate;
      }
    </style>
  </defs>
  <g id="Ebene_1-2" data-name="Ebene_1">
    <g>
      <text class="cls-4" transform="translate(.18 118.15) rotate(4)"><tspan x="0" y="0">P</tspan></text>
      <text class="cls-4" transform="translate(39.51 118.2) rotate(4)"><tspan x="0" y="0">U</tspan></text>
      <text class="cls-4" transform="translate(77.32 118.17) rotate(4)"><tspan x="0" y="0">S</tspan></text>
      <text class="cls-4" transform="translate(116.02 118.22) rotate(4)"><tspan x="0" y="0">O</tspan></text>
      <text class="cls-4" transform="translate(153.12 118.23) rotate(4)"><tspan x="0" y="0">C</tspan></text>
      <text class="cls-4" transform="translate(190.06 118.12) rotate(4)"><tspan x="0" y="0">H</tspan></text>
      <text class="cls-4" transform="translate(230.1 118.05) rotate(4)"><tspan x="0" y="0">A</tspan></text>
      <text class="cls-5" transform="translate(272.44 118.73) rotate(4)"><tspan x="0" y="0"> </tspan></text>
      <text class="cls-4" transform="translate(318.11 118.08) rotate(4)"><tspan x="0" y="0">N</tspan></text>
      <text class="cls-6" transform="translate(359.18 117.93) rotate(4)"><tspan x="0" y="0">Z</tspan></text>
    </g>
    <g id="Ebene_1-2">
      <path class="cls-2" d="M287.15,120.31c-.1.23,4.81,3.68,12.49,2.18,2.07-6.4,3.9-13.67,5.09-21.75,3.38-23,.11-42.63-3.56-56.14-1.4-.93-3.18-2.32-4.88-4.3-2.28-2.66-3.49-5.29-4.15-7.09l-.4,6.26s16.31,32.99-4.58,80.83h0Z"/>
      <path d="M290.37,115.87c1.26,1.44,3.19,2.14,5.08,2.38,1.91.24,3.86.04,5.73-.38l-.18-.68c-1.79.53-3.65.83-5.52.71-1.84-.12-3.76-.68-5.11-2.03Z"/>
      <path d="M290.56,114.41c1.15,1.63,3.23,2.35,5.19,2.47,1.99.15,3.98-.21,5.89-.73l-.21-.67c-1.82.62-3.73,1.08-5.66,1.05-1.9,0-3.96-.56-5.2-2.12h0Z"/>
      <path d="M292.98,110.01c3.11,1.23,6.63,1.74,9.99.84l-.21-.67c-3.09,1.06-6.6.84-9.78-.18h0Z"/>
      <path class="cls-1" d="M292.98,107.58s3.38,3,9.06,1.66"/>
      <path d="M295.83,101.97c1.18.94,2.73,1.29,4.22,1.42,1.51.13,3.03,0,4.52-.25l-.15-.69c-1.43.36-2.89.59-4.36.58-1.46-.01-2.99-.23-4.24-1.07h0Z"/>
      <path d="M297.3,99.63c1.96,1.75,4.74,2.66,7.46,2.26l-.13-.69c-2.46.59-5.22,0-7.33-1.57Z"/>
      <path d="M297.83,92.85c1.02.85,2.34,1.25,3.65,1.45,1.32.19,2.67.16,4-.02l-.12-.69c-1.26.29-2.55.43-3.84.36-1.28-.08-2.6-.35-3.69-1.1Z"/>
      <path class="cls-1" d="M298.02,91.38s.7,1.4,6.12.32"/>
      <path d="M300.07,86.66c.85.59,1.95.61,2.95.63,1.03,0,2.05-.13,3.06-.29l-.16-.68c-.96.27-1.93.5-2.92.63-.97.09-2.03.2-2.93-.28h0Z"/>
      <path d="M300.55,79.47c1.75.71,3.83.64,5.64-.13l-.31-.63c-1.55.9-3.5,1.25-5.33.76Z"/>
      <path d="M302.98,77.57c-.9.2-1.81.35-2.74.4-.94.03-1.85.05-2.87-.36l.36-.6c.65.37,1.63.54,2.5.61.9.07,1.82.04,2.73-.05h.02Z"/>
      <path d="M299.92,73.46c2.04.42,4.2-.06,6.1-.97l-.34-.61c-1.68,1.06-3.7,1.76-5.76,1.58Z"/>
      <path class="cls-1" d="M305.31,67.15s-3.17,1.15-7.66.38"/>
      <path class="cls-1" d="M297.61,63.95s3.78,1.48,7.3-.16"/>
      <path d="M302.6,59.98c-.86.36-1.81.43-2.72.52-.93.07-1.85.1-2.79.09l.06-.7c.9.12,1.81.21,2.73.26.91.03,1.84.08,2.73-.16h0Z"/>
      <path d="M298.75,57.06c.87.21,1.78.31,2.69.3.91-.02,1.86-.17,2.73-.64l-.38-.59c-.66.48-1.51.75-2.38.88-.87.13-1.77.14-2.66.05Z"/>
      <path d="M301.61,52.86c-.92.28-1.89.32-2.84.36-.96.03-1.91.02-2.88-.02l.08-.7c.92.15,1.87.28,2.81.36.94.07,1.89.15,2.83,0h0Z"/>
      <path d="M301.1,50.51c-1.6,1-3.36,1.74-5.13,2.44l-.21-.67c1.81-.46,3.63-.98,5.33-1.77h.01Z"/>
      <path d="M300.82,47.54c-.26.48-.81.71-1.3.88-.51.17-1.04.25-1.57.33-1.06.14-2.13.18-3.21.16l.06-.7c1.03.13,2.08.2,3.12.19.52-.02,1.05-.05,1.56-.15.5-.11,1.04-.26,1.35-.71h-.01Z"/>
      <path class="cls-1" d="M293.46,44.25l4.91.45c-.7.96-3.83,1.79-3.83,1.79"/>
      <path d="M294.98,41.38l-1.25.13-.63.06-.32.02c-.13,0-.17.03-.4,0l.14-.42.05-.15c.02-.06.03-.11.03-.09h0l.06.02.14.03.3.06.61.12,1.24.22h.02Z"/>
      <path class="cls-3" d="M291.78,30.29s1.63,15.59-3.64,24.2l-5.84-1.53,4.4,3.73-4.88,6.31-4.21-1.15,2.87,2.87-9.28,10.62-4.3-11.77,2.49-2.01-2.87.29s-1.24-6.89-.96-9.09l3.73-2.39-3.64.38s2.3-11.29,7.08-14.45l-6.79.38.19-3.92-2.2,4.4-7.84,3.06-.19-3.35s-2.77,3.54-2.49,5.07c0,0-5.45,3.35-6.12,4.5,0,0,6.06-34.79,33.8-24.84l-1.74-3.38,2.58-4.35-3.87,2.68s-6.03-3.87-7.65-4.11l2.06-4.27-4.4,3.44s-6.15-1.31-10.95,7.94c0,0-2.79-14.67,21.84-19.26,0,0,18.35-1.98,18.03,20.41,0,0,10.33-18.69,33.42-8.61,0,0,13.36,6.09,15.32,14.7,0,0-6.55-2.3-7.99-1.87l-4.4-3.87.96,3.3s-7.65.1-9.47.53l-4.11-3.54,1.39,3.92s-4.93.67-5.31,1.29l4.93,3.25-2.44,2.01,4.35-.57s5.31,4.88,6.17,8.23l-2.01,1,2.73.14s1.67,2.63,4.45,11.38c0,0-10.62-2.06-13.92-1.58l1.2-4.11-4.07,3.78s-6.84-.67-9.38-1.82c0,0,.24-3.84.81-6.13l-3.68,5.41s-10.91-2-14.16-17.26h0Z"/>
      <path d="M275.25,3.08c2.67.14,5.19,1.3,7.3,2.89,2.12,1.61,3.76,3.76,5.03,6.07,2.6,4.64,3.7,9.94,4.29,15.19l.7-.08c-.71-5.29-1.94-10.64-4.68-15.28-1.34-2.31-3.05-4.46-5.23-6.04-2.16-1.55-4.73-2.67-7.41-2.75Z"/>
      <path d="M330.53,15.23c-2.88-.54-5.81-.76-8.72-.42-2.89.36-5.75,1.03-8.48,2.06-5.43,2.08-10.51,5.15-14.89,8.93l-.47-.52c4.56-3.77,9.71-6.74,15.24-8.74,2.77-.99,5.66-1.61,8.58-1.91,2.93-.28,5.87,0,8.73.6h0Z"/>
      <path d="M254.56,30.35c1.94-2.01,4.47-3.34,7.07-4.25,2.63-.9,5.41-1.26,8.17-1.28,5.55,0,11.01,1.37,16.14,3.43l.25-.65c-5.23-1.97-10.79-3.26-16.4-3.13-2.79.08-5.59.5-8.22,1.46-2.61.97-5.12,2.37-7.01,4.42Z"/>
      <path d="M295.98,26.82c.69-2.09.79-4.33.8-6.49l.7.02c-.24,2.22-.58,4.45-1.5,6.47Z"/>
      <path d="M296.65,28.55c3.02-1.86,6.57-2.65,10.05-2.88,3.51-.15,7.03.32,10.39,1.3l.19-.68c-3.46-.89-7.05-1.25-10.6-.98-3.52.35-7.07,1.27-10.03,3.23h0Z"/>
      <path d="M330.61,48.11c-4.37-5.06-9.55-9.45-15.43-12.6-2.96-1.52-6.08-2.74-9.32-3.47-3.22-.71-6.61-1.04-9.83-.56l-.13-.69c3.42-.45,6.8-.04,10.08.74,3.28.8,6.41,2.09,9.37,3.67,5.87,3.28,10.98,7.77,15.26,12.91Z"/>
      <path d="M289.14,27.95c-1.02-1.49-2.38-2.69-3.84-3.72-1.46-1.01-3.04-1.89-4.66-2.57l.28-.64c1.65.82,3.17,1.81,4.59,2.94,1.41,1.14,2.7,2.45,3.63,4h0Z"/>
      <path d="M286.53,30.05c-2.59.6-5.03,1.69-7.39,2.89-2.36,1.21-4.65,2.56-6.85,4.01l-.38-.59c2.3-1.38,4.65-2.63,7.08-3.74,2.42-1.1,4.93-2.08,7.55-2.57h0Z"/>
      <path d="M258.71,15.18c.54-.51,1.24-.84,2.04-.99v.7c-.64-.09-1.39-.03-2.04.29Z"/>
      <path d="M277.21,56.27c-1.02-2.48-1.05-5.25-.52-7.83.55-2.6,1.79-5.01,3.33-7.15,3.07-4.34,7.39-7.61,11.88-10.39l-.37-.6c-4.47,2.91-8.77,6.31-11.8,10.78-1.52,2.2-2.72,4.67-3.21,7.31-.48,2.62-.38,5.42.69,7.87h0Z"/>
    </g>
  </g>
</svg>