<?xml version="1.0" encoding="UTF-8"?>
<svg id="Ebene_1" xmlns="http://www.w3.org/2000/svg" xmlns:xlink="http://www.w3.org/1999/xlink" viewBox="0 0 409.44 420.95">
  <defs>
    <style>
      .cls-1 {
        fill: #78a94e;
      }

      .cls-2 {
        fill: #fff;
      }

      .cls-3 {
        fill: #7d5616;
      }

      .cls-3, .cls-4 {
        font-family: BBTMartiresFree-ExtraBold, 'BBT Martires Free';
        font-size: 39.74px;
        font-weight: 700;
      }

      .cls-5, .cls-6 {
        fill: none;
      }

      .cls-7 {
        clip-path: url(#clippath-1);
      }

      .cls-8 {
        isolation: isolate;
      }

      .cls-6 {
        stroke: #000;
        stroke-miterlimit: 10;
        stroke-width: .25px;
      }

      .cls-9 {
        fill: #844f13;
      }

      .cls-4 {
        fill: #7d5614;
      }

      .cls-10 {
        clip-path: url(#clippath-2);
      }

      .cls-11 {
        fill: #e9c806;
      }

      .cls-12 {
        clip-path: url(#clippath);
      }
    </style>
    <clipPath id="clippath">
      <rect class="cls-5" x="111.8" width="297.64" height="420.95"/>
    </clipPath>
    <clipPath id="clippath-1">
      <rect class="cls-5" x="111.8" width="297.64" height="420.95"/>
    </clipPath>
    <clipPath id="clippath-2">
      <rect class="cls-5" x="346.23" y="211.14" width="21.79" height="36.32"/>
    </clipPath>
  </defs>
  <rect class="cls-11" x="125" y="252.68" width="11.3" height="18.7" rx="2" ry="2" transform="translate(-134.06 387.16) rotate(-88.8)"/>
  <rect class="cls-11" x="106.98" y="242.53" width="11.3" height="18.7" rx="2" ry="2" transform="translate(-159.34 205.35) rotate(-56.2)"/>
  <rect class="cls-11" x="139.88" y="247.17" width="18.7" height="11.3" rx="2" ry="2" transform="translate(-113.39 121.6) rotate(-32.9)"/>
  <rect class="cls-11" x="184.75" y="198.53" width="18.7" height="11.3" rx="2" ry="2" transform="translate(-76.91 281.12) rotate(-62.3)"/>
  <rect class="cls-11" x="188.75" y="176.58" width="18.7" height="11.3" rx="2" ry="2" transform="translate(-3.52 360.55) rotate(-84.1)"/>
  <rect class="cls-11" x="183.54" y="152.59" width="11.3" height="18.7" rx="2" ry="2" transform="translate(-58.4 135.21) rotate(-34.4)"/>
  <rect class="cls-11" x="165.42" y="140.62" width="11.3" height="18.7" rx="2" ry="2" transform="translate(-5.83 293.01) rotate(-80.2)"/>
  <rect class="cls-11" x="140.45" y="147.1" width="18.7" height="11.3" rx="2" ry="2" transform="translate(-45.56 65.53) rotate(-21.5)"/>
  <rect class="cls-11" x="127.06" y="155.54" width="11.3" height="18.7" rx="2" ry="2" transform="translate(-34.93 294.12) rotate(-88.8)"/>
  <rect class="cls-11" x="110.45" y="142.72" width="11.3" height="18.7" rx="2" ry="2" transform="translate(-70.27 195.31) rotate(-65.7)"/>
  <rect class="cls-11" x="85.68" y="142.57" width="18.7" height="11.3" rx="2" ry="2" transform="translate(-20.17 15.07) rotate(-8.2)"/>
  <rect class="cls-11" x="67.01" y="153.64" width="18.7" height="11.3" rx="2" ry="2" transform="translate(-97.45 127.74) rotate(-54.1)"/>
  <rect class="cls-11" x="60.67" y="170.2" width="11.3" height="18.7" rx="2" ry="2" transform="translate(-14.79 6.18) rotate(-4.8)"/>
  <rect class="cls-11" x="64.15" y="192.16" width="11.3" height="18.7" rx="2" ry="2" transform="translate(-81.01 50.73) rotate(-25.9)"/>
  <rect class="cls-11" x="74.89" y="211.53" width="11.3" height="18.7" rx="2" ry="2" transform="translate(-124.76 106.3) rotate(-40.8)"/>
  <rect class="cls-11" x="89.46" y="228.09" width="11.3" height="18.7" rx="2" ry="2" transform="translate(-150.43 165.77) rotate(-51.9)"/>
  <rect class="cls-2" x="127.64" y="255.23" width="5.5" height="13.6" rx="1" ry="1" transform="translate(-134.31 386.91) rotate(-88.8)"/>
  <rect class="cls-2" x="142.85" y="249.81" width="13.6" height="5.5" rx="1" ry="1" transform="translate(-118.84 133.85) rotate(-35.5)"/>
  <rect class="cls-2" x="187.51" y="200.8" width="13.6" height="5.5" rx="1" ry="1" transform="translate(-77.67 275.76) rotate(-61.2)"/>
  <rect class="cls-2" x="191.75" y="179.14" width="13.6" height="5.5" rx="1" ry="1" transform="translate(.37 364.18) rotate(-85.1)"/>
  <rect class="cls-2" x="167.47" y="142.89" width="5.5" height="13.6" rx="1" ry="1" transform="translate(-11.83 284.75) rotate(-77.9)"/>
  <rect class="cls-2" x="186.25" y="154.73" width="5.5" height="13.6" rx="1" ry="1" transform="translate(-58.43 137.18) rotate(-34.9)"/>
  <rect class="cls-2" x="143.62" y="149.82" width="13.6" height="5.5" rx="1" ry="1" transform="translate(-48.36 72.63) rotate(-23.5)"/>
  <rect class="cls-2" x="130.01" y="158.3" width="5.5" height="13.6" rx="1" ry="1" transform="translate(-35.08 294.37) rotate(-88.8)"/>
  <rect class="cls-2" x="113.01" y="145.19" width="5.5" height="13.6" rx="1" ry="1" transform="translate(-70.76 193.32) rotate(-65.2)"/>
  <rect class="cls-2" x="88.96" y="145.56" width="13.6" height="5.5" rx="1" ry="1" transform="translate(-24.07 18.67) rotate(-9.9)"/>
  <rect class="cls-2" x="69.96" y="156.41" width="13.6" height="5.5" rx="1" ry="1" transform="translate(-97.28 128.62) rotate(-54.3)"/>
  <rect class="cls-2" x="63.45" y="172.42" width="5.5" height="13.6" rx="1" ry="1" transform="translate(-10.21 4.11) rotate(-3.3)"/>
  <rect class="cls-2" x="66.88" y="193.99" width="5.5" height="13.6" rx="1" ry="1" transform="translate(-82.8 52.7) rotate(-26.7)"/>
  <rect class="cls-2" x="77.03" y="213.57" width="5.5" height="13.6" rx="1" ry="1" transform="translate(-119.19 96.53) rotate(-38.2)"/>
  <rect class="cls-2" x="91.88" y="230.41" width="5.5" height="13.6" rx="1" ry="1" transform="translate(-147.06 154.69) rotate(-49.4)"/>
  <rect class="cls-2" x="109.37" y="244.92" width="5.5" height="13.6" rx="1" ry="1" transform="translate(-157.83 196.35) rotate(-54.4)"/>
  <rect class="cls-11" x="101.6" y="235.26" width="4.1" height="18.6" rx=".7" ry=".7" transform="translate(-150.32 166.76) rotate(-50)"/>
  <rect class="cls-11" x="85.46" y="219.95" width="4.1" height="18.6" rx=".7" ry=".7" transform="translate(-128.12 112.14) rotate(-40.6)"/>
  <rect class="cls-11" x="72.71" y="201.8" width="4.1" height="18.6" rx=".7" ry=".7" transform="translate(-92.45 62.13) rotate(-28.8)"/>
  <rect class="cls-11" x="65.48" y="181.15" width="4.1" height="18.6" rx=".7" ry=".7" transform="translate(-24.28 10.44) rotate(-7.5)"/>
  <rect class="cls-11" x="60.76" y="167.07" width="18.6" height="4.1" rx=".7" ry=".7" transform="translate(-110.89 141.44) rotate(-58.8)"/>
  <rect class="cls-11" x="75.73" y="150.68" width="18.6" height="4.1" rx=".7" ry=".7" transform="translate(-63.06 59.86) rotate(-28.8)"/>
  <rect class="cls-11" x="104.08" y="139.84" width="4.1" height="18.6" rx=".7" ry=".7" transform="translate(-59.85 226.31) rotate(-79.5)"/>
  <rect class="cls-11" x="122.81" y="149.89" width="4.1" height="18.6" rx=".7" ry=".7" transform="translate(-75.44 130.72) rotate(-43.8)"/>
  <rect class="cls-11" x="131.97" y="157.34" width="18.6" height="4.1" rx=".7" ry=".7" transform="translate(-71.01 142.12) rotate(-43.8)"/>
  <rect class="cls-11" x="150.71" y="148.33" width="18.6" height="4.1" rx=".7" ry=".7" transform="translate(-21.55 26.88) rotate(-9)"/>
  <rect class="cls-11" x="178.89" y="145.26" width="4.1" height="18.6" rx=".7" ry=".7" transform="translate(-45 229.26) rotate(-58.8)"/>
  <rect class="cls-11" x="193.26" y="162.74" width="4.1" height="18.6" rx=".7" ry=".7" transform="translate(-58.72 115.37) rotate(-28.8)"/>
  <rect class="cls-11" x="187.65" y="191.62" width="18.6" height="4.1" rx=".7" ry=".7" transform="translate(-24.57 358.67) rotate(-81.2)"/>
  <rect class="cls-11" x="119.79" y="248.88" width="4.1" height="18.6" rx=".7" ry=".7" transform="translate(-162.12 228.65) rotate(-58.8)"/>
  <rect class="cls-11" x="130.54" y="255.87" width="18.6" height="4.1" rx=".7" ry=".7" transform="translate(-106.96 99.27) rotate(-28.8)"/>
  <g>
    <g>
      <polygon class="cls-11" points="115.7 100.69 122.4 94.39 127 140.49 123 141.19 115.7 100.69"/>
      <polygon class="cls-11" points="152.7 101.49 146.3 94.89 139.8 140.79 143.7 141.69 152.7 101.49"/>
      <polygon class="cls-11" points="129.9 140.29 127.5 89.29 134.8 82.69 141.4 89.59 136.9 140.39 129.9 140.29"/>
    </g>
    <g>
      <polygon class="cls-11" points="149.3 312.29 142.8 318.69 137.7 272.59 141.7 271.89 149.3 312.29"/>
      <polygon class="cls-11" points="112.4 311.79 118.8 318.39 124.9 272.39 121 271.59 112.4 311.79"/>
      <polygon class="cls-11" points="134.8 272.79 137.7 323.79 130.5 330.49 123.8 323.69 127.8 272.79 134.8 272.79"/>
    </g>
    <g>
      <polygon class="cls-11" points="18 210.59 11.7 203.89 57.8 199.29 58.5 203.29 18 210.59"/>
      <polygon class="cls-11" points="18.9 173.59 12.2 179.89 58.1 186.59 59 182.59 18.9 173.59"/>
      <polygon class="cls-11" points="57.6 196.49 6.6 198.79 0 191.49 6.9 184.89 57.7 189.39 57.6 196.49"/>
    </g>
    <g>
      <polygon class="cls-11" points="36.5 124.49 38 115.39 69.1 149.79 66.3 152.79 36.5 124.49"/>
      <polygon class="cls-11" points="66.7 103.19 57.7 101.69 79.6 142.59 83.3 140.89 66.7 103.19"/>
      <polygon class="cls-11" points="71.3 147.99 39.2 108.29 41.1 98.69 50.5 100.29 77.1 143.89 71.3 147.99"/>
    </g>
    <g>
      <polygon class="cls-11" points="205.5 108.79 214.6 108.59 187.3 145.99 183.8 143.89 205.5 108.79"/>
      <polygon class="cls-11" points="232.4 134.19 232.1 124.99 196.5 154.69 198.9 157.99 232.4 134.19"/>
      <polygon class="cls-11" points="189.5 147.79 221.8 108.29 231.7 108.19 232 117.69 194.7 152.49 189.5 147.79"/>
    </g>
    <g>
      <polygon class="cls-11" points="63.5 277.79 54.3 277.19 85 242.39 88.2 244.89 63.5 277.79"/>
      <polygon class="cls-11" points="39 250.09 38.4 259.29 76.5 232.89 74.5 229.39 39 250.09"/>
      <polygon class="cls-11" points="82.9 240.49 47.2 276.89 37.3 276.09 37.9 266.49 78.1 235.19 82.9 240.49"/>
    </g>
  </g>
  <g class="cls-12">
    <text class="cls-3" transform="translate(166.82 244.95) rotate(4)"><tspan x="0" y="0">P</tspan></text>
    <text class="cls-3" transform="translate(186.49 244.97) rotate(4)"><tspan x="0" y="0">U</tspan></text>
    <text class="cls-3" transform="translate(205.42 244.94) rotate(4)"><tspan x="0" y="0">S</tspan></text>
    <text class="cls-3" transform="translate(224.78 244.98) rotate(4)"><tspan x="0" y="0">O</tspan></text>
    <text class="cls-3" transform="translate(243.34 245) rotate(4)"><tspan x="0" y="0">C</tspan></text>
    <text class="cls-3" transform="translate(261.83 244.94) rotate(4)"><tspan x="0" y="0">H</tspan></text>
    <text class="cls-3" transform="translate(281.83 244.9) rotate(4)"><tspan x="0" y="0">A</tspan></text>
    <text class="cls-4" transform="translate(303 245.23) rotate(4)"><tspan x="0" y="0"> </tspan></text>
    <text class="cls-3" transform="translate(325.85 244.91) rotate(4)"><tspan x="0" y="0">N</tspan></text>
    <g class="cls-7">
      <g class="cls-8">
        <g class="cls-10">
          <text class="cls-3" transform="translate(346.32 244.84) rotate(4)"><tspan x="0" y="0">Z</tspan></text>
        </g>
      </g>
      <path class="cls-9" d="M310.3,246.03c-.05.12,2.4,1.84,6.24,1.09,1.04-3.2,1.95-6.84,2.54-10.88,1.69-11.5.05-21.32-1.78-28.07-.7-.46-1.59-1.16-2.44-2.15-1.14-1.33-1.74-2.65-2.07-3.54l-.2,3.13s8.15,16.5-2.29,40.42h0Z"/>
      <path class="cls-6" d="M310.3,246.03c-.05.12,2.4,1.84,6.24,1.09,1.04-3.2,1.95-6.84,2.54-10.88,1.69-11.5.05-21.32-1.78-28.07-.7-.46-1.59-1.16-2.44-2.15-1.14-1.33-1.74-2.65-2.07-3.54l-.2,3.13s8.15,16.5-2.29,40.42h0Z"/>
      <path d="M311.91,243.81c.63.72,1.59,1.07,2.54,1.19.96.12,1.93.02,2.87-.19l-.09-.34c-.89.26-1.82.42-2.76.36-.92-.06-1.88-.34-2.55-1.02"/>
      <path d="M312.01,243.08c.57.82,1.61,1.18,2.59,1.24,1,.08,1.99-.1,2.95-.36l-.1-.34c-.91.31-1.87.54-2.83.53-.95,0-1.98-.28-2.6-1.06h0Z"/>
      <path d="M313.22,240.88c1.55.62,3.31.87,4.99.42l-.1-.34c-1.55.53-3.3.42-4.89-.09h0Z"/>
      <path class="cls-6" d="M313.22,239.67s1.69,1.5,4.53.83"/>
      <path d="M314.64,236.86c.59.47,1.36.65,2.11.71.76.07,1.52,0,2.26-.12l-.07-.35c-.72.18-1.45.29-2.18.29-.73,0-1.49-.12-2.12-.54h0Z"/>
      <path d="M315.38,235.69c.98.88,2.37,1.33,3.73,1.13l-.07-.35c-1.23.29-2.61,0-3.66-.79"/>
      <path d="M315.64,232.3c.51.43,1.17.62,1.82.73.66.1,1.33.08,2,0l-.06-.35c-.63.15-1.28.21-1.92.18-.64-.04-1.3-.18-1.84-.55"/>
      <path class="cls-6" d="M315.74,231.57s.35.7,3.06.16"/>
      <path d="M316.76,229.21c.42.3.97.31,1.47.32.51,0,1.03-.07,1.53-.14l-.08-.34c-.48.14-.96.25-1.46.32-.49.04-1.01.1-1.46-.14h0Z"/>
      <path d="M317,225.61c.88.36,1.91.32,2.82-.06l-.15-.32c-.77.45-1.75.62-2.66.38"/>
      <path d="M318.22,224.66c-.45.1-.91.18-1.37.2-.47.01-.93.02-1.43-.18l.18-.3c.32.19.81.27,1.25.31.45.04.91.02,1.36-.03h.01Z"/>
      <path d="M316.69,222.61c1.02.21,2.1-.03,3.05-.48l-.17-.31c-.84.53-1.85.88-2.88.79"/>
      <path class="cls-6" d="M319.38,219.45s-1.59.58-3.83.19"/>
      <path class="cls-6" d="M315.53,217.85s1.89.74,3.65-.08"/>
      <path d="M318.03,215.87c-.43.18-.91.22-1.36.26-.47.04-.93.05-1.4.04l.03-.35c.45.06.9.11,1.37.13.45.01.92.04,1.36-.08h0Z"/>
      <path d="M316.1,214.41c.43.11.89.16,1.34.15.46,0,.93-.09,1.37-.32l-.19-.29c-.33.24-.75.38-1.19.44-.43.07-.88.07-1.33.02"/>
      <path d="M317.53,212.31c-.46.14-.95.16-1.42.18-.48.01-.95,0-1.44,0l.04-.35c.46.07.93.14,1.4.18.47.04.95.08,1.42,0h0Z"/>
      <path d="M317.28,211.13c-.8.5-1.68.87-2.57,1.22l-.11-.33c.9-.23,1.82-.49,2.67-.89h0Z"/>
      <path d="M317.14,209.65c-.13.24-.41.36-.65.44-.26.09-.52.12-.79.17-.53.07-1.06.09-1.6.08l.03-.35c.51.07,1.04.1,1.56.1.26,0,.53-.02.78-.07.25-.06.52-.13.68-.36h0Z"/>
      <path class="cls-6" d="M313.46,208l2.45.23c-.35.48-1.91.9-1.91.9"/>
      <path d="M314.22,206.57l-.62.07-.32.03h-.16c-.07.01-.09.03-.2.01l.07-.21.03-.07s.01-.05.01-.04h.03s.07.02.07.02l.15.03.31.06.62.11h.01Z"/>
      <path class="cls-1" d="M312.62,201.02s.81,7.8-1.82,12.1l-2.92-.76,2.2,1.87-2.44,3.15-2.1-.57,1.43,1.43-4.64,5.31-2.15-5.89,1.24-1-1.43.15s-.62-3.45-.48-4.55l1.86-1.19-1.82.19s1.15-5.65,3.54-7.23l-3.4.19.1-1.96-1.1,2.2-3.92,1.53-.1-1.68s-1.39,1.77-1.25,2.54c0,0-2.72,1.67-3.06,2.25,0,0,3.03-17.4,16.9-12.42l-.87-1.69,1.29-2.18-1.93,1.34s-3.01-1.93-3.83-2.05l1.03-2.14-2.2,1.72s-3.07-.65-5.47,3.97c0,0-1.4-7.33,10.92-9.63,0,0,9.18-.99,9.01,10.21,0,0,5.16-9.35,16.71-4.3,0,0,6.68,3.04,7.66,7.35,0,0-3.27-1.15-3.99-.93l-2.2-1.93.48,1.65s-3.82.05-4.74.26l-2.06-1.77.7,1.96s-2.46.34-2.65.65l2.46,1.62-1.22,1.01,2.18-.29s2.65,2.44,3.09,4.12l-1.01.5,1.37.07s.83,1.32,2.22,5.69c0,0-5.31-1.03-6.96-.79l.6-2.06-2.04,1.89s-3.42-.33-4.69-.91c0,0,.12-1.92.4-3.06l-1.84,2.7s-5.45-1-7.08-8.63h0Z"/>
      <path class="cls-6" d="M312.62,201.02s.81,7.8-1.82,12.1l-2.92-.76,2.2,1.87-2.44,3.15-2.1-.57,1.43,1.43-4.64,5.31-2.15-5.89,1.24-1-1.43.15s-.62-3.45-.48-4.55l1.86-1.19-1.82.19s1.15-5.65,3.54-7.23l-3.4.19.1-1.96-1.1,2.2-3.92,1.53-.1-1.68s-1.39,1.77-1.25,2.54c0,0-2.72,1.67-3.06,2.25,0,0,3.03-17.4,16.9-12.42l-.87-1.69,1.29-2.18-1.93,1.34s-3.01-1.93-3.83-2.05l1.03-2.14-2.2,1.72s-3.07-.65-5.47,3.97c0,0-1.4-7.33,10.92-9.63,0,0,9.18-.99,9.01,10.21,0,0,5.16-9.35,16.71-4.3,0,0,6.68,3.04,7.66,7.35,0,0-3.27-1.15-3.99-.93l-2.2-1.93.48,1.65s-3.82.05-4.74.26l-2.06-1.77.7,1.96s-2.46.34-2.65.65l2.46,1.62-1.22,1.01,2.18-.29s2.65,2.44,3.09,4.12l-1.01.5,1.37.07s.83,1.32,2.22,5.69c0,0-5.31-1.03-6.96-.79l.6-2.06-2.04,1.89s-3.42-.33-4.69-.91c0,0,.12-1.92.4-3.06l-1.84,2.7s-5.45-1-7.08-8.63h0Z"/>
      <path d="M304.35,187.42c1.33.07,2.59.65,3.65,1.45,1.06.8,1.88,1.88,2.51,3.04,1.3,2.32,1.85,4.97,2.15,7.6l.35-.04c-.35-2.64-.97-5.32-2.34-7.64-.67-1.15-1.52-2.23-2.62-3.02-1.08-.77-2.36-1.33-3.7-1.38"/>
      <path d="M331.99,193.49c-1.44-.27-2.91-.38-4.36-.21-1.45.18-2.88.51-4.24,1.03-2.71,1.04-5.26,2.57-7.45,4.46l-.24-.26c2.28-1.88,4.86-3.37,7.62-4.37,1.38-.5,2.83-.81,4.29-.96,1.46-.14,2.93,0,4.37.3h0Z"/>
      <path d="M294.01,201.05c.97-1,2.23-1.67,3.53-2.12,1.32-.45,2.71-.63,4.09-.64,2.77,0,5.51.69,8.07,1.72l.12-.33c-2.61-.98-5.39-1.63-8.2-1.56-1.4.04-2.79.25-4.11.73-1.3.49-2.56,1.18-3.5,2.21"/>
      <path d="M314.72,199.29c.34-1.04.39-2.16.4-3.24h.35c-.12,1.12-.29,2.24-.75,3.24"/>
      <path d="M315.05,200.15c1.51-.93,3.28-1.32,5.02-1.44,1.76-.08,3.51.16,5.19.65l.1-.34c-1.73-.45-3.52-.62-5.3-.49-1.76.18-3.54.64-5.01,1.62h0Z"/>
      <path d="M332.03,209.93c-2.19-2.53-4.78-4.72-7.72-6.3-1.48-.76-3.04-1.37-4.66-1.74-1.61-.36-3.31-.52-4.92-.28l-.07-.35c1.71-.23,3.4-.02,5.04.37,1.64.4,3.21,1.04,4.68,1.84,2.93,1.64,5.49,3.88,7.63,6.45"/>
      <path d="M311.3,199.85c-.51-.74-1.19-1.34-1.92-1.86-.73-.51-1.52-.95-2.33-1.29l.14-.32c.82.41,1.58.9,2.29,1.47.71.57,1.35,1.23,1.82,2h0Z"/>
      <path d="M309.99,200.9c-1.3.3-2.52.85-3.7,1.45-1.18.6-2.32,1.28-3.43,2.01l-.19-.29c1.15-.69,2.33-1.32,3.54-1.87,1.21-.55,2.46-1.04,3.77-1.29h0Z"/>
      <path d="M296.08,193.47c.27-.25.62-.42,1.02-.49v.35c-.32-.04-.69-.01-1.02.14"/>
      <path d="M305.33,214.01c-.51-1.24-.53-2.62-.26-3.91.28-1.3.9-2.51,1.67-3.57,1.53-2.17,3.69-3.81,5.94-5.2l-.18-.3c-2.24,1.45-4.38,3.15-5.9,5.39-.76,1.1-1.36,2.33-1.6,3.65-.24,1.31-.19,2.71.35,3.93h0Z"/>
    </g>
  </g>
</svg>