<?xml version="1.0" encoding="UTF-8"?>
<svg id="Ebene_1" xmlns="http://www.w3.org/2000/svg" viewBox="0 0 228.38 283.9">
  <defs>
    <style>
      .cls-1 {
        fill: none;
      }

      .cls-1, .cls-2, .cls-3 {
        stroke: #000;
        stroke-miterlimit: 10;
        stroke-width: .5px;
      }

      .cls-2 {
        fill: #844e13;
      }

      .cls-3 {
        fill: #78a94e;
      }
    </style>
  </defs>
  <path class="cls-2" d="M92.61,277.74c-.23.52,11.13,8.5,28.86,5.05,4.78-14.79,9.01-31.6,11.75-50.26,7.82-53.16.26-98.53-8.24-129.75-3.24-2.15-7.34-5.36-11.28-9.95-5.27-6.14-8.07-12.23-9.58-16.39l-.93,14.48s37.71,76.26-10.59,186.83Z"/>
  <path d="M100.04,267.48c1.44,1.66,3.37,2.82,5.38,3.69,2.03.86,4.2,1.34,6.38,1.58,4.38.47,8.83-.05,13.1-1.1l-.18-.68c-4.18,1.15-8.55,1.78-12.89,1.43-2.16-.18-4.32-.6-6.35-1.4-2.01-.81-3.96-1.91-5.44-3.53Z"/>
  <path d="M100.48,264.09c.62.95,1.47,1.73,2.38,2.4.44.36.95.62,1.43.92.5.26,1.02.51,1.54.74,2.1.88,4.38,1.3,6.65,1.41,4.56.28,9.1-.62,13.46-1.89l-.21-.67c-4.27,1.37-8.73,2.37-13.24,2.21-2.24-.04-4.5-.41-6.6-1.22-.52-.21-1.03-.45-1.54-.69-.48-.29-.99-.53-1.44-.88-.93-.64-1.78-1.4-2.43-2.33Z"/>
  <path d="M106.09,253.92c3.62,1.4,7.45,2.25,11.33,2.57,3.88.34,7.84.03,11.62-1.06l-.21-.67c-3.65,1.17-7.53,1.6-11.39,1.38-3.85-.21-7.7-.94-11.36-2.22Z"/>
  <path class="cls-1" d="M106.09,248.32s7.81,6.93,20.93,3.83"/>
  <path d="M112.68,235.34c.66.56,1.42.98,2.21,1.34.78.37,1.6.65,2.44.89,1.67.48,3.39.72,5.12.82,3.47.22,6.95-.14,10.35-.8l-.15-.69c-3.34.76-6.76,1.23-10.19,1.13-1.71-.04-3.43-.23-5.1-.64-.83-.21-1.66-.46-2.45-.8-.79-.33-1.57-.73-2.24-1.26Z"/>
  <path d="M116.07,229.93c4.64,3.92,11.05,5.82,17.17,4.77l-.13-.69c-5.86,1.24-12.25-.34-17.03-4.08Z"/>
  <path d="M117.29,214.26c2.39,1.9,5.46,2.75,8.47,3.12,3.04.36,6.12.21,9.14-.27l-.12-.69c-2.95.59-5.97.85-8.98.61-2.98-.26-6.04-.97-8.5-2.77Z"/>
  <path class="cls-1" d="M117.73,210.87s1.62,3.24,14.15.74"/>
  <path d="M122.46,199.94c.95.7,2.15.93,3.3,1.1,1.16.15,2.34.17,3.51.14,2.35-.09,4.67-.44,6.97-.89l-.16-.68c-2.25.56-4.53,1.02-6.84,1.23-1.15.09-2.32.13-3.47.04-1.14-.11-2.34-.28-3.32-.93Z"/>
  <path d="M123.57,183.33c4.1,1.5,8.82,1.15,12.83-.72l-.31-.63c-3.75,2-8.34,2.62-12.52,1.35Z"/>
  <path d="M129.18,178.93c-2.08.39-4.19.66-6.33.7-1.07.03-2.14-.02-3.2-.15-1.07-.15-2.11-.33-3.18-.84l.36-.6c.82.45,1.89.73,2.9.92,1.03.19,2.07.29,3.13.32,2.11.08,4.22-.07,6.32-.35Z"/>
  <path d="M122.12,169.44c4.72.81,9.63-.44,13.88-2.64l-.34-.61c-4.03,2.35-8.78,3.83-13.54,3.25Z"/>
  <path class="cls-1" d="M134.57,154.86s-7.32,2.65-17.71.88"/>
  <path class="cls-1" d="M116.78,147.46s8.73,3.43,16.88-.38"/>
  <path d="M128.32,138.28c-.99.4-2.06.57-3.11.71-1.06.13-2.12.21-3.19.25-2.13.09-4.26.07-6.4-.02l.06-.7c2.1.21,4.22.34,6.34.37,1.06.02,2.12,0,3.18-.08,1.06-.08,2.12-.19,3.13-.53Z"/>
  <path d="M119.42,131.54c2.03.41,4.12.57,6.21.47,1.04-.07,2.09-.2,3.11-.45,1.02-.27,2.02-.65,2.96-1.2l-.38-.59c-.83.55-1.75.97-2.72,1.28-.97.29-1.98.49-3,.61-2.04.21-4.13.17-6.18-.12Z"/>
  <path d="M126.04,121.84c-1.06.3-2.16.42-3.26.5-1.1.08-2.2.11-3.3.11-2.2,0-4.4-.1-6.6-.26l.08-.7c2.16.28,4.35.49,6.53.61,1.09.06,2.19.09,3.28.07,1.09-.03,2.19-.08,3.26-.33Z"/>
  <path d="M124.86,116.39c-3.78,2.18-7.87,3.74-11.98,5.2l-.21-.67c4.15-1.23,8.31-2.56,12.19-4.53Z"/>
  <path d="M124.2,109.53c-.28.55-.79.94-1.33,1.24-.54.3-1.12.5-1.71.68-1.18.34-2.41.52-3.63.65-2.45.24-4.9.26-7.37.15l.06-.7c2.41.23,4.85.32,7.28.2,1.21-.07,2.43-.19,3.61-.47,1.15-.29,2.42-.68,3.09-1.75Z"/>
  <path class="cls-1" d="M107.18,101.94l11.35,1.03c-1.62,2.21-8.84,4.13-8.84,4.13"/>
  <path d="M110.7,95.3l-2.89.08-1.45.02h-.73c-.26-.01-.44,0-.8-.06l.18-.53c.06-.17.06-.13.06-.13h.01s.02,0,.02,0c.01,0,.03.01.06.02l.17.03.35.05.71.09,1.43.15,2.87.27Z"/>
  <path class="cls-3" d="M103.3,69.65s3.76,36.04-8.4,55.94l-13.49-3.54,10.17,8.62-11.28,14.59-9.73-2.65,6.63,6.63-21.45,24.54-9.95-27.2,5.75-4.64-6.63.66s-2.87-15.92-2.21-21.01l8.62-5.53-8.4.88s5.31-26.09,16.36-33.39l-15.7.88.44-9.07-5.09,10.17-18.13,7.08-.44-7.74s-6.41,8.18-5.75,11.72c0,0-12.6,7.74-14.15,10.39,0,0,14-80.41,78.13-57.42l-4.02-7.81,5.97-10.06-8.96,6.19s-13.93-8.96-17.69-9.51l4.77-9.86-10.17,7.96s-14.23-3.02-25.32,18.35c0,0-6.45-33.9,50.49-44.52,0,0,42.42-4.57,41.68,47.17,0,0,23.88-43.19,77.24-19.9,0,0,30.88,14.08,35.42,33.98,0,0-15.15-5.31-18.46-4.31l-10.17-8.96,2.21,7.63s-17.69.22-21.89,1.22l-9.51-8.18,3.21,9.07s-11.39,1.55-12.27,2.99l11.39,7.52-5.64,4.64,10.06-1.33s12.27,11.28,14.26,19.02l-4.64,2.32,6.3.33s3.87,6.08,10.28,26.31c0,0-24.54-4.75-32.17-3.65l2.76-9.51-9.4,8.73s-15.81-1.55-21.67-4.2c0,0,.54-8.87,1.87-14.18l-8.51,12.49s-25.23-4.63-32.73-39.9Z"/>
  <path d="M65.1,6.77c6.18.26,12.06,2.9,16.95,6.58,4.92,3.71,8.78,8.66,11.82,13.98,2.97,5.38,5.21,11.15,6.78,17.09,1.59,5.94,2.64,12.01,3.32,18.12l.7-.08c-.75-6.13-1.85-12.22-3.51-18.18-1.64-5.96-3.95-11.74-6.98-17.12-3.11-5.32-7.03-10.26-12.01-13.95-4.94-3.65-10.86-6.23-17.05-6.44Z"/>
  <path d="M192.87,34.84c-3.31-.69-6.66-1.23-10.04-1.38-3.37-.14-6.76-.13-10.12.26-6.72.68-13.32,2.35-19.66,4.68-6.34,2.34-12.43,5.31-18.22,8.77-5.79,3.46-11.36,7.34-16.43,11.75l-.47-.52c5.18-4.42,10.79-8.25,16.64-11.68,5.85-3.42,11.99-6.36,18.37-8.65,6.38-2.27,13.01-3.9,19.76-4.52,3.37-.36,6.77-.35,10.14-.18,3.38.18,6.73.75,10.03,1.47Z"/>
  <path d="M17.29,69.79c2.19-2.36,4.82-4.27,7.57-5.91.7-.4,1.38-.82,2.09-1.19l2.18-1.04,1.09-.52,1.13-.43,2.25-.85c6.07-2.11,12.52-2.99,18.92-3.07,1.6.02,3.21-.02,4.81.06l4.79.45c.8.09,1.6.12,2.39.25l2.37.43,4.73.86c3.12.76,6.21,1.63,9.3,2.47l9.08,3.2.25-.65-9.15-3.14c-3.12-.82-6.23-1.67-9.37-2.4l-4.77-.83-2.38-.41c-.8-.12-1.61-.15-2.41-.23l-4.82-.41c-1.61-.06-3.22,0-4.84-.01-6.43.15-12.89,1.08-18.97,3.26l-2.25.87-1.12.44-1.09.53-2.17,1.06c-.71.38-1.39.81-2.09,1.21-2.74,1.67-5.36,3.61-7.53,5.99Z"/>
  <path d="M113.01,61.64c.91-2.38,1.39-4.89,1.73-7.41.33-2.52.52-5.06.57-7.58l.7.02c-.17,2.56-.48,5.1-.92,7.62-.46,2.51-1.06,5.02-2.08,7.35Z"/>
  <path d="M114.57,65.65c3.43-2.23,7.28-3.72,11.19-4.84,3.93-1.11,7.97-1.74,12.03-2.04,8.14-.43,16.32.59,24.15,2.8l.19-.68c-7.93-2.11-16.18-3.02-24.36-2.47-4.08.36-8.13,1.05-12.06,2.22-3.91,1.18-7.74,2.74-11.14,5.01Z"/>
  <path d="M193.05,110.85c-10.04-11.75-21.97-21.97-35.55-29.33-6.84-3.56-14.06-6.42-21.58-8.15l-2.82-.62c-.94-.22-1.9-.31-2.85-.47-.95-.13-1.9-.31-2.86-.41l-2.88-.25c-3.83-.25-7.72-.26-11.48.33l-.13-.69c7.78-1.06,15.59-.16,23.14,1.6,7.55,1.8,14.78,4.73,21.62,8.35,13.57,7.49,25.43,17.82,35.38,29.64Z"/>
  <path d="M56.19,157.67c-.04-4.31.32-8.62.89-12.89.57-4.27,1.37-8.52,2.41-12.7,2.08-8.36,5.1-16.49,9.06-24.14,2.01-3.81,4.24-7.5,6.69-11.03,2.51-3.49,5.19-6.87,8.13-10.01,5.87-6.29,12.65-11.7,19.97-16.19l-.37-.6c-7.34,4.58-14.13,10.07-19.99,16.43-2.94,3.17-5.61,6.59-8.11,10.11-2.44,3.57-4.66,7.29-6.65,11.12-3.92,7.7-6.89,15.87-8.92,24.26-1.01,4.2-1.78,8.45-2.33,12.73-.54,4.28-.87,8.59-.8,12.91Z"/>
  <path d="M97.82,64.85c-1.16-1.73-2.5-3.32-3.97-4.78-1.5-1.44-3.09-2.77-4.76-3.99-3.36-2.42-6.97-4.51-10.73-6.19l.28-.64c3.79,1.81,7.34,4.02,10.66,6.55,1.65,1.28,3.21,2.67,4.67,4.15,1.44,1.51,2.74,3.15,3.85,4.91Z"/>
  <path d="M91.18,69.1c-6.01,1.32-11.69,3.77-17.19,6.47-5.49,2.73-10.83,5.79-15.98,9.1l-.38-.59c5.25-3.24,10.65-6.19,16.21-8.83,5.56-2.6,11.3-4.95,17.34-6.15Z"/>
  <path d="M26.86,34.74c1.32-1.05,2.98-1.64,4.72-1.82v.7c-1.58-.05-3.28.26-4.72,1.12Z"/>
</svg>