<?xml version="1.0" encoding="UTF-8"?>
<svg id="Ebene_1" xmlns="http://www.w3.org/2000/svg" viewBox="0 0 264.93 247.79">
  <defs>
    <style>
      .cls-1 {
        fill: #fff;
      }

      .cls-2 {
        fill: #e9c807;
      }
    </style>
  </defs>
  <rect class="cls-2" x="121.3" y="173.68" width="18.69" height="11.29" rx="2.03" ry="2.03" transform="translate(3.79 -2.7) rotate(1.2)"/>
  <rect class="cls-2" x="103.24" y="163.5" width="18.69" height="11.29" rx="2.03" ry="2.03" transform="translate(113.07 -34.04) rotate(33.78)"/>
  <rect class="cls-2" x="139.86" y="164.36" width="18.69" height="11.29" rx="2.03" ry="2.03" transform="translate(-68.45 108.45) rotate(-32.94)"/>
  <rect class="cls-2" x="184.65" y="115.67" width="18.69" height="11.29" rx="2.03" ry="2.03" transform="translate(391.5 5.8) rotate(117.66)"/>
  <rect class="cls-2" x="188.9" y="93.91" width="18.69" height="11.29" rx="2.03" ry="2.03" transform="translate(317.76 -87.32) rotate(95.93)"/>
  <rect class="cls-2" x="179.78" y="73.51" width="18.69" height="11.29" rx="2.03" ry="2.03" transform="translate(147.47 -121.59) rotate(55.57)"/>
  <rect class="cls-2" x="161.62" y="61.52" width="18.69" height="11.29" rx="2.03" ry="2.03" transform="translate(13.84 -27.98) rotate(9.75)"/>
  <rect class="cls-2" x="140.49" y="64.43" width="18.69" height="11.29" rx="2.03" ry="2.03" transform="translate(-15.26 59.81) rotate(-21.51)"/>
  <rect class="cls-2" x="123.31" y="76.56" width="18.69" height="11.29" rx="2.03" ry="2.03" transform="translate(1.75 -2.76) rotate(1.2)"/>
  <rect class="cls-2" x="106.79" y="63.73" width="18.69" height="11.29" rx="2.03" ry="2.03" transform="translate(38.82 -41.64) rotate(24.29)"/>
  <rect class="cls-2" x="85.71" y="59.93" width="18.69" height="11.29" rx="2.03" ry="2.03" transform="translate(-8.38 14.23) rotate(-8.2)"/>
  <rect class="cls-2" x="66.99" y="70.97" width="18.69" height="11.29" rx="2.03" ry="2.03" transform="translate(-30.5 93.48) rotate(-54.07)"/>
  <rect class="cls-2" x="57.02" y="91.23" width="18.69" height="11.29" rx="2.03" ry="2.03" transform="translate(157.33 22.61) rotate(85.18)"/>
  <rect class="cls-2" x="60.52" y="113.07" width="18.69" height="11.29" rx="2.03" ry="2.03" transform="translate(146.07 3.97) rotate(64.07)"/>
  <rect class="cls-2" x="71.12" y="132.55" width="18.69" height="11.29" rx="2.03" ry="2.03" transform="translate(132.59 -12.98) rotate(49.23)"/>
  <rect class="cls-2" x="85.74" y="149.2" width="18.69" height="11.29" rx="2.03" ry="2.03" transform="translate(115.94 -25.66) rotate(38.14)"/>
  <rect class="cls-1" x="123.59" y="176.67" width="13.64" height="5.5" rx=".99" ry=".99" transform="translate(3.79 -2.69) rotate(1.2)"/>
  <rect class="cls-1" x="142.87" y="167.03" width="13.64" height="5.5" rx=".99" ry=".99" transform="translate(-70.8 118.64) rotate(-35.54)"/>
  <rect class="cls-1" x="187.5" y="118.08" width="13.64" height="5.5" rx=".99" ry=".99" transform="translate(-5.16 232.94) rotate(-61.21)"/>
  <rect class="cls-1" x="191.83" y="96.41" width="13.64" height="5.5" rx=".99" ry=".99" transform="translate(82.8 288.57) rotate(-85.07)"/>
  <rect class="cls-1" x="163.52" y="64.34" width="13.64" height="5.5" rx=".99" ry=".99" transform="translate(17.93 -34.34) rotate(12.15)"/>
  <rect class="cls-1" x="182.11" y="75.91" width="13.64" height="5.5" rx=".99" ry=".99" transform="translate(232.67 278.59) rotate(-124.95)"/>
  <rect class="cls-1" x="143.59" y="67.19" width="13.64" height="5.5" rx=".99" ry=".99" transform="translate(-15.41 65.66) rotate(-23.46)"/>
  <rect class="cls-1" x="125.94" y="79.63" width="13.64" height="5.5" rx=".99" ry=".99" transform="translate(1.76 -2.77) rotate(1.2)"/>
  <rect class="cls-1" x="108.94" y="66.56" width="13.64" height="5.5" rx=".99" ry=".99" transform="translate(39.73 -42.15) rotate(24.79)"/>
  <rect class="cls-1" x="88.89" y="62.87" width="13.64" height="5.5" rx=".99" ry=".99" transform="translate(-9.82 17.35) rotate(-9.86)"/>
  <rect class="cls-1" x="69.89" y="73.6" width="13.64" height="5.5" rx=".99" ry=".99" transform="translate(183.46 58.51) rotate(125.65)"/>
  <rect class="cls-1" x="59.4" y="93.76" width="13.64" height="5.5" rx=".99" ry=".99" transform="translate(158.7 24.76) rotate(86.65)"/>
  <rect class="cls-1" x="62.86" y="115.51" width="13.64" height="5.5" rx=".99" ry=".99" transform="translate(144.11 2.92) rotate(63.34)"/>
  <rect class="cls-1" x="73.05" y="134.81" width="13.64" height="5.5" rx=".99" ry=".99" transform="translate(138.46 -10.33) rotate(51.75)"/>
  <rect class="cls-1" x="87.84" y="151.69" width="13.64" height="5.5" rx=".99" ry=".99" transform="translate(123.24 -24.43) rotate(40.58)"/>
  <rect class="cls-1" x="105.32" y="166.17" width="13.64" height="5.5" rx=".99" ry=".99" transform="translate(119.16 -33.71) rotate(35.56)"/>
  <rect class="cls-2" x="94.27" y="159.87" width="18.63" height="4.06" rx=".73" ry=".73" transform="translate(128.3 -28.71) rotate(40)"/>
  <rect class="cls-2" x="78.19" y="144.51" width="18.63" height="4.06" rx=".73" ry=".73" transform="translate(141.76 -15.28) rotate(49.38)"/>
  <rect class="cls-2" x="65.38" y="126.35" width="18.63" height="4.06" rx=".73" ry=".73" transform="translate(151.21 1.08) rotate(61.2)"/>
  <rect class="cls-2" x="58.24" y="105.73" width="18.63" height="4.06" rx=".73" ry=".73" transform="translate(165.54 26.68) rotate(82.48)"/>
  <rect class="cls-2" x="60.75" y="84.45" width="18.63" height="4.06" rx=".73" ry=".73" transform="translate(-40.2 101.61) rotate(-58.8)"/>
  <rect class="cls-2" x="75.66" y="68.02" width="18.63" height="4.06" rx=".73" ry=".73" transform="translate(193.18 90.5) rotate(151.2)"/>
  <rect class="cls-2" x="96.84" y="64.45" width="18.63" height="4.06" rx=".73" ry=".73" transform="translate(13.9 -18.24) rotate(10.51)"/>
  <rect class="cls-2" x="115.55" y="74.48" width="18.63" height="4.06" rx=".73" ry=".73" transform="translate(93.66 -66.57) rotate(46.2)"/>
  <rect class="cls-2" x="131.94" y="74.59" width="18.63" height="4.06" rx=".73" ry=".73" transform="translate(-13.73 119.08) rotate(-43.8)"/>
  <rect class="cls-2" x="150.71" y="65.58" width="18.63" height="4.06" rx=".73" ry=".73" transform="translate(-8.62 25.93) rotate(-9.02)"/>
  <rect class="cls-2" x="171.6" y="69.92" width="18.63" height="4.06" rx=".73" ry=".73" transform="translate(63.44 -83.31) rotate(31.2)"/>
  <rect class="cls-2" x="186.03" y="87.31" width="18.63" height="4.06" rx=".73" ry=".73" transform="translate(179.53 -124.88) rotate(61.2)"/>
  <rect class="cls-2" x="187.53" y="108.78" width="18.63" height="4.06" rx=".73" ry=".73" transform="translate(336.37 -66.83) rotate(98.77)"/>
  <rect class="cls-2" x="112.5" y="173.43" width="18.63" height="4.06" rx=".73" ry=".73" transform="translate(108.52 -37.72) rotate(31.2)"/>
  <rect class="cls-2" x="130.5" y="173.24" width="18.63" height="4.06" rx=".73" ry=".73" transform="translate(-67.14 89.03) rotate(-28.8)"/>
  <g>
    <g>
      <polygon class="cls-2" points="115.73 18 122.36 11.68 127.03 57.79 123.03 58.51 115.73 18"/>
      <polygon class="cls-2" points="152.68 18.83 146.34 12.24 139.76 58.12 143.71 59 152.68 18.83"/>
      <polygon class="cls-2" points="129.86 57.63 127.49 6.64 134.76 0 141.39 6.88 136.95 57.69 129.86 57.63"/>
    </g>
    <g>
      <polygon class="cls-2" points="149.34 229.62 142.77 236 137.67 189.93 141.67 189.18 149.34 229.62"/>
      <polygon class="cls-2" points="112.38 229.13 118.78 235.66 124.94 189.72 120.98 188.87 112.38 229.13"/>
      <polygon class="cls-2" points="134.84 190.11 137.68 241.08 130.48 247.79 123.78 240.98 127.76 190.12 134.84 190.11"/>
    </g>
    <g>
      <polygon class="cls-2" points="17.97 127.86 11.66 121.22 57.78 116.6 58.49 120.6 17.97 127.86"/>
      <polygon class="cls-2" points="18.85 90.91 12.25 97.24 58.13 103.87 59.01 99.92 18.85 90.91"/>
      <polygon class="cls-2" points="57.63 113.77 6.64 116.08 0 108.81 6.88 102.18 57.7 106.68 57.63 113.77"/>
    </g>
    <g>
      <polygon class="cls-2" points="36.45 41.75 38.05 32.73 69.12 67.13 66.31 70.08 36.45 41.75"/>
      <polygon class="cls-2" points="66.72 20.55 57.71 18.99 79.57 59.86 83.28 58.23 66.72 20.55"/>
      <polygon class="cls-2" points="71.3 65.33 39.21 25.63 41.13 15.98 50.55 17.6 77.05 61.18 71.3 65.33"/>
    </g>
    <g>
      <polygon class="cls-2" points="205.47 26.14 214.63 25.87 187.27 63.29 183.82 61.15 205.47 26.14"/>
      <polygon class="cls-2" points="232.39 51.46 232.09 42.32 196.52 72.04 198.87 75.34 232.39 51.46"/>
      <polygon class="cls-2" points="189.48 65.06 221.81 25.56 231.66 25.48 231.99 35.02 194.71 69.84 189.48 65.06"/>
    </g>
    <g>
      <polygon class="cls-2" points="63.47 195.08 54.33 194.52 84.96 159.72 88.2 162.17 63.47 195.08"/>
      <polygon class="cls-2" points="38.95 167.42 38.43 176.55 76.54 150.17 74.49 146.67 38.95 167.42"/>
      <polygon class="cls-2" points="82.91 157.75 47.15 194.17 37.34 193.37 37.86 183.83 78.13 152.52 82.91 157.75"/>
    </g>
  </g>
  <rect class="cls-2" x="172.27" y="133.27" width="18.69" height="11.29" rx="2.03" ry="2.03" transform="translate(405.42 92.08) rotate(130.77)"/>
  <rect class="cls-2" x="157.66" y="149.91" width="18.69" height="11.29" rx="2.03" ry="2.03" transform="translate(394.42 174.76) rotate(141.86)"/>
  <rect class="cls-1" x="175.38" y="135.52" width="13.64" height="5.5" rx=".99" ry=".99" transform="translate(403.58 80.77) rotate(128.25)"/>
  <rect class="cls-1" x="160.6" y="152.4" width="13.64" height="5.5" rx=".99" ry=".99" transform="translate(395.5 164.06) rotate(139.42)"/>
  <rect class="cls-2" x="149.18" y="160.58" width="18.63" height="4.06" rx=".73" ry=".73" transform="translate(384.42 185.31) rotate(140)"/>
  <rect class="cls-2" x="165.27" y="145.22" width="18.63" height="4.06" rx=".73" ry=".73" transform="translate(400 110.59) rotate(130.62)"/>
  <rect class="cls-2" x="178.87" y="128.49" width="18.63" height="4.06" rx=".73" ry=".73" transform="translate(402.95 51.01) rotate(124.94)"/>
  <g>
    <polygon class="cls-2" points="195.85 199.88 204.99 199.32 174.37 164.52 171.13 166.97 195.85 199.88"/>
    <polygon class="cls-2" points="220.38 172.23 220.9 181.36 182.79 154.97 184.84 151.47 220.38 172.23"/>
    <polygon class="cls-2" points="176.42 162.56 212.18 198.98 221.99 198.17 221.46 188.64 181.19 157.32 176.42 162.56"/>
  </g>
  <g>
    <polygon class="cls-2" points="246.96 131.68 253.27 125.04 207.15 120.42 206.44 124.42 246.96 131.68"/>
    <polygon class="cls-2" points="246.08 94.72 252.68 101.05 206.81 107.69 205.92 103.74 246.08 94.72"/>
    <polygon class="cls-2" points="207.31 117.58 258.3 119.89 264.93 112.62 258.05 106 207.24 110.5 207.31 117.58"/>
  </g>
</svg>